<svg id="SvgjsSvg1001" width="288" height="288" xmlns="http://www.w3.org/2000/svg" version="1.1" xmlns:xlink="http://www.w3.org/1999/xlink" xmlns:svgjs="http://svgjs.com/svgjs"><defs id="SvgjsDefs1002"></defs><g id="SvgjsG1008" transform="matrix(1,0,0,1,0,0)"><svg xmlns="http://www.w3.org/2000/svg" width="288" height="288" fill="none" viewBox="0 0 220 50"><path fill="#ffffff" d="M82.6 44.6C78.4333 44.6 75.0333 43.7667 72.4 42.1C69.7667 40.4333 68.45 37.8333 68.45 34.3L68.5 33.3H73.2C73.1333 33.7667 73.1 34.1167 73.1 34.35C73.1 36.3833 73.9333 37.9333 75.6 39C77.3 40.0333 79.55 40.55 82.35 40.55C85.4833 40.55 87.8833 40.0667 89.55 39.1C91.2167 38.1 92.05 36.6833 92.05 34.85C92.05 33.6167 91.6167 32.6 90.75 31.8C89.8833 30.9667 88.7833 30.3167 87.45 29.85C86.15 29.3833 84.3833 28.8667 82.15 28.3C79.3833 27.6 77.15 26.9333 75.45 26.3C73.75 25.6333 72.3 24.6667 71.1 23.4C69.9 22.1 69.3 20.4 69.3 18.3C69.3 15.3 70.55 13.0167 73.05 11.45C75.55 9.88333 78.75 9.1 82.65 9.1C86.55 9.1 89.7167 9.9 92.15 11.5C94.5833 13.0667 95.8 15.4833 95.8 18.75V19.35H91.15V18.6C91.15 16.9 90.3667 15.5667 88.8 14.6C87.2667 13.6333 85.2667 13.15 82.8 13.15C80.1667 13.15 78.05 13.55 76.45 14.35C74.8833 15.15 74.1 16.35 74.1 17.95C74.1 19.1167 74.5167 20.0667 75.35 20.8C76.2167 21.5333 77.2667 22.1333 78.5 22.6C79.7667 23.0333 81.5167 23.5333 83.75 24.1C86.5167 24.8 88.7667 25.4833 90.5 26.15C92.2667 26.8167 93.75 27.8 94.95 29.1C96.1833 30.3667 96.8 32.0333 96.8 34.1C96.8 37.7667 95.5167 40.4333 92.95 42.1C90.4167 43.7667 86.9667 44.6 82.6 44.6ZM113.25 44.6C109.216 44.6 106.183 43.4833 104.15 41.25C102.116 38.9833 101.1 35.5167 101.1 30.85C101.1 26.1833 102.116 22.7333 104.15 20.5C106.183 18.2333 109.216 17.1 113.25 17.1C117.283 17.1 120.316 18.2333 122.35 20.5C124.383 22.7333 125.4 26.1833 125.4 30.85C125.4 35.5167 124.383 38.9833 122.35 41.25C120.316 43.4833 117.283 44.6 113.25 44.6ZM113.25 40.95C115.916 40.95 117.85 40.1833 119.05 38.65C120.25 37.0833 120.85 34.55 120.85 31.05V30.65C120.85 27.15 120.25 24.6333 119.05 23.1C117.85 21.5333 115.916 20.75 113.25 20.75C110.583 20.75 108.65 21.5333 107.45 23.1C106.25 24.6333 105.65 27.15 105.65 30.65V31.05C105.65 34.55 106.25 37.0833 107.45 38.65C108.65 40.1833 110.583 40.95 113.25 40.95ZM130.483 7.85H134.883V44H130.483V7.85ZM138.867 17.7H143.517L148.167 30.85C148.833 32.7167 149.7 35.4667 150.767 39.1H151.017C151.983 35.6667 152.833 32.9167 153.567 30.85L158.167 17.7H162.567L152.917 44H148.517L138.867 17.7ZM166.067 18.2H189.667V22.4H166.067V18.2ZM166.067 28.85H189.667V33.05H166.067V28.85ZM166.067 39.5H189.667V43.65H166.067V39.5ZM202.467 30.55L193.167 17.7H198.517L204.767 27.05H205.067L211.467 17.7H216.567L207.267 30.45L217.017 44H211.717L204.967 33.9H204.667L197.817 44H192.717L202.467 30.55Z" class="color000 svgShape"></path><path fill="#ffffff" d="M53.4281 25.0138C53.2555 34.7069 47.1711 43.5797 37.727 46.8489C33.1227 48.465 28.1203 48.6488 23.4051 47.3752C18.6899 46.1015 14.4923 43.4327 11.3874 39.7342C8.28255 36.0357 6.42213 31.4885 6.06098 26.7153C5.69984 21.9421 6.85564 17.1764 9.37008 13.0708C11.9268 8.96411 15.7128 5.72642 20.2144 3.79709C24.716 1.86776 29.7152 1.34019 34.5337 2.28599C45.556 4.51775 53.237 14.1385 53.4281 25.0138C53.4281 26.1779 55.2774 26.1779 55.2774 25.0138C55.2323 19.9154 53.616 14.949 50.6399 10.7638C47.6637 6.57867 43.4662 3.36959 38.5962 1.55614C33.6323 -0.241862 28.2205 -0.488305 23.1074 0.850812C17.9943 2.18993 13.432 5.0486 10.0497 9.03245C6.66752 13.0163 4.63214 17.929 4.22443 23.0927C3.81671 28.2564 5.05675 33.4166 7.77346 37.8615C10.4646 42.1915 14.4243 45.6296 19.1382 47.7293C23.8521 49.829 29.1024 50.4932 34.207 49.6356C46.4067 47.5365 55.0678 36.9688 55.2836 25.0078C55.2959 23.8497 53.4466 23.8497 53.4281 25.0138V25.0138Z" class="color111 svgShape"></path><path fill="#ffffff" d="M0.924681 25.9185H59.0748C59.3201 25.9185 59.5553 25.8232 59.7287 25.6535C59.9021 25.4839 59.9995 25.2537 59.9995 25.0138C59.9995 24.7738 59.9021 24.5437 59.7287 24.374C59.5553 24.2043 59.3201 24.109 59.0748 24.109H0.924681C0.679441 24.109 0.444244 24.2043 0.270833 24.374C0.0974215 24.5437 0 24.7738 0 25.0138C0 25.2537 0.0974215 25.4839 0.270833 25.6535C0.444244 25.8232 0.679441 25.9185 0.924681 25.9185V25.9185Z" class="color111 svgShape"></path></svg></g></svg>